<svg width="184" height="36" viewBox="0 0 184 36" fill="none" xmlns="http://www.w3.org/2000/svg">
<circle opacity="0.5" cx="18.2255" cy="17.8612" r="17.2382" stroke="#FD5B2F" stroke-width="1.04474"/>
<path d="M24.4947 16.0519C25.8877 16.8561 25.8877 18.8667 24.4947 19.671L16.6591 24.1948C15.2661 24.9991 13.5249 23.9938 13.5249 22.3853L13.5249 13.3376C13.5249 11.7291 15.2661 10.7238 16.6591 11.528L24.4947 16.0519Z" fill="#FD5B2F"/>
<path d="M56.9385 16.0326C57.83 16.1998 58.5599 16.5842 59.1282 17.186C59.6966 17.7878 59.9808 18.5511 59.9808 19.4761C59.9808 20.6128 59.5907 21.5099 58.8106 22.1673C58.0306 22.8248 57.0833 23.1536 55.9689 23.1536C55.0774 23.1536 54.2862 22.953 53.5953 22.5518C52.9044 22.1395 52.414 21.5489 52.1243 20.7799L53.4281 20.011C53.7736 21.092 54.6205 21.6324 55.9689 21.6324C56.6933 21.6324 57.2839 21.443 57.7408 21.0641C58.1977 20.6852 58.4262 20.1559 58.4262 19.4761C58.4262 18.7963 58.1977 18.267 57.7408 17.8881C57.2839 17.498 56.6933 17.303 55.9689 17.303H55.5678L54.9493 16.3502L57.6572 12.6894H52.4586V11.2352H59.4793V12.6059L56.9385 16.0326ZM66.419 11.2352C68.0126 11.2352 69.3331 11.8035 70.3806 12.9402C71.4393 14.0657 71.9687 15.4476 71.9687 17.0857C71.9687 18.7239 71.4393 20.1113 70.3806 21.248C69.3331 22.3735 68.0126 22.9363 66.419 22.9363H61.8555V11.2352H66.419ZM66.419 21.4653C67.6114 21.4653 68.5865 21.0474 69.3443 20.2116C70.102 19.3758 70.4809 18.3338 70.4809 17.0857C70.4809 15.8376 70.102 14.7956 69.3443 13.9599C68.5865 13.1241 67.6114 12.7062 66.419 12.7062H63.4101V21.4653H66.419ZM85.5214 11.2352V12.7062H82.0613V22.9363H80.5234V12.7062H77.0799V11.2352H85.5214ZM92.4455 21.8832C91.5874 22.7301 90.5454 23.1536 89.3196 23.1536C88.0938 23.1536 87.0518 22.7301 86.1937 21.8832C85.3468 21.0362 84.9233 19.9943 84.9233 18.7573C84.9233 17.5203 85.3468 16.4784 86.1937 15.6314C87.0518 14.7845 88.0938 14.361 89.3196 14.361C90.5454 14.361 91.5874 14.7845 92.4455 15.6314C93.3035 16.4784 93.7326 17.5203 93.7326 18.7573C93.7326 19.9943 93.3035 21.0362 92.4455 21.8832ZM89.3196 21.7327C90.1554 21.7327 90.8575 21.4486 91.4258 20.8802C91.9941 20.3119 92.2783 19.6042 92.2783 18.7573C92.2783 17.9104 91.9941 17.2027 91.4258 16.6344C90.8575 16.0661 90.1554 15.7819 89.3196 15.7819C88.4949 15.7819 87.7985 16.0661 87.2301 16.6344C86.6618 17.2027 86.3776 17.9104 86.3776 18.7573C86.3776 19.6042 86.6618 20.3119 87.2301 20.8802C87.7985 21.4486 88.4949 21.7327 89.3196 21.7327ZM101.214 14.5783H102.668V22.9363H101.214V21.7327C100.623 22.68 99.7207 23.1536 98.506 23.1536C97.5254 23.1536 96.7397 22.8471 96.1491 22.2342C95.5585 21.6102 95.2631 20.7688 95.2631 19.7101V14.5783H96.7174V19.6265C96.7174 20.3063 96.9013 20.8357 97.269 21.2145C97.6368 21.5823 98.1438 21.7662 98.7902 21.7662C99.5145 21.7662 100.1 21.5433 100.545 21.0975C100.991 20.6406 101.214 19.9441 101.214 19.008V14.5783ZM106.337 15.9825C106.816 14.9461 107.685 14.4279 108.944 14.4279V15.949C108.231 15.9156 107.618 16.1051 107.106 16.5174C106.593 16.9297 106.337 17.5928 106.337 18.5066V22.9363H104.882V14.5783H106.337V15.9825ZM121.6 21.8832C120.742 22.7301 119.7 23.1536 118.474 23.1536C117.249 23.1536 116.207 22.7301 115.349 21.8832C114.502 21.0362 114.078 19.9943 114.078 18.7573C114.078 17.5203 114.502 16.4784 115.349 15.6314C116.207 14.7845 117.249 14.361 118.474 14.361C119.7 14.361 120.742 14.7845 121.6 15.6314C122.458 16.4784 122.887 17.5203 122.887 18.7573C122.887 19.9943 122.458 21.0362 121.6 21.8832ZM118.474 21.7327C119.31 21.7327 120.012 21.4486 120.581 20.8802C121.149 20.3119 121.433 19.6042 121.433 18.7573C121.433 17.9104 121.149 17.2027 120.581 16.6344C120.012 16.0661 119.31 15.7819 118.474 15.7819C117.65 15.7819 116.953 16.0661 116.385 16.6344C115.817 17.2027 115.532 17.9104 115.532 18.7573C115.532 19.6042 115.817 20.3119 116.385 20.8802C116.953 21.4486 117.65 21.7327 118.474 21.7327ZM128.588 12.422C127.117 12.2994 126.381 12.9346 126.381 14.3276V14.5783H128.588V15.9825H126.381V22.9363H124.927V15.9825H123.59V14.5783H124.927V14.3276C124.927 13.2021 125.239 12.3496 125.863 11.7701C126.498 11.1906 127.406 10.9399 128.588 11.0179V12.422ZM137.802 23.1536C136.71 23.1536 135.774 22.8973 134.994 22.3847C134.225 21.872 133.684 21.17 133.372 20.2785L134.71 19.5095C135.167 20.9248 136.209 21.6324 137.836 21.6324C138.638 21.6324 139.251 21.4709 139.674 21.1477C140.098 20.8134 140.31 20.3732 140.31 19.8271C140.31 19.2699 140.098 18.852 139.674 18.5734C139.251 18.2948 138.543 17.9995 137.551 17.6875C137.061 17.5315 136.688 17.4089 136.431 17.3197C136.175 17.2194 135.852 17.0746 135.462 16.8851C135.083 16.6845 134.799 16.484 134.609 16.2834C134.42 16.0716 134.247 15.7986 134.091 15.4643C133.946 15.13 133.874 14.7511 133.874 14.3276C133.874 13.3135 134.231 12.5111 134.944 11.9205C135.657 11.3187 136.526 11.0179 137.551 11.0179C138.476 11.0179 139.279 11.2519 139.959 11.7199C140.649 12.188 141.168 12.8065 141.513 13.5754L140.209 14.3276C139.708 13.1241 138.822 12.5223 137.551 12.5223C136.916 12.5223 136.404 12.6783 136.014 12.9903C135.624 13.3024 135.429 13.7258 135.429 14.2607C135.429 14.7734 135.612 15.1634 135.98 15.4309C136.348 15.6983 136.983 15.9769 137.886 16.2666C138.209 16.3669 138.437 16.4394 138.571 16.484C138.705 16.5285 138.911 16.6065 139.19 16.718C139.479 16.8294 139.691 16.9186 139.825 16.9854C139.959 17.0523 140.137 17.147 140.36 17.2696C140.594 17.3922 140.766 17.5092 140.878 17.6206C140.989 17.7321 141.117 17.8714 141.262 18.0385C141.418 18.1945 141.53 18.3561 141.597 18.5233C141.664 18.6904 141.719 18.8855 141.764 19.1083C141.82 19.3201 141.847 19.5485 141.847 19.7937C141.847 20.8189 141.474 21.638 140.727 22.2509C139.981 22.8527 139.006 23.1536 137.802 23.1536ZM148.151 14.361C149.321 14.361 150.319 14.7901 151.144 15.6482C151.968 16.4951 152.381 17.5315 152.381 18.7573C152.381 19.9831 151.968 21.0251 151.144 21.8832C150.319 22.7301 149.321 23.1536 148.151 23.1536C146.77 23.1536 145.716 22.602 144.992 21.4987V26.2795H143.538V14.5783H144.992V16.0159C145.716 14.9127 146.77 14.361 148.151 14.361ZM147.968 21.7495C148.803 21.7495 149.505 21.4653 150.074 20.8969C150.642 20.3175 150.926 19.6042 150.926 18.7573C150.926 17.9104 150.642 17.2027 150.074 16.6344C149.505 16.0549 148.803 15.7652 147.968 15.7652C147.121 15.7652 146.413 16.0549 145.845 16.6344C145.276 17.2027 144.992 17.9104 144.992 18.7573C144.992 19.6042 145.276 20.3175 145.845 20.8969C146.413 21.4653 147.121 21.7495 147.968 21.7495ZM161.036 14.5783H162.49V22.9363H161.036V21.4987C160.312 22.602 159.259 23.1536 157.877 23.1536C156.707 23.1536 155.709 22.7301 154.885 21.8832C154.06 21.0251 153.648 19.9831 153.648 18.7573C153.648 17.5315 154.06 16.4951 154.885 15.6482C155.709 14.7901 156.707 14.361 157.877 14.361C159.259 14.361 160.312 14.9127 161.036 16.0159V14.5783ZM158.061 21.7495C158.908 21.7495 159.615 21.4653 160.184 20.8969C160.752 20.3175 161.036 19.6042 161.036 18.7573C161.036 17.9104 160.752 17.2027 160.184 16.6344C159.615 16.0549 158.908 15.7652 158.061 15.7652C157.225 15.7652 156.523 16.0549 155.955 16.6344C155.386 17.2027 155.102 17.9104 155.102 18.7573C155.102 19.6042 155.386 20.3175 155.955 20.8969C156.523 21.4653 157.225 21.7495 158.061 21.7495ZM168.622 23.1536C167.363 23.1536 166.315 22.7357 165.479 21.8999C164.644 21.053 164.226 20.0054 164.226 18.7573C164.226 17.5092 164.644 16.4672 165.479 15.6314C166.315 14.7845 167.363 14.361 168.622 14.361C169.447 14.361 170.188 14.5616 170.845 14.9628C171.503 15.3528 171.993 15.8822 172.316 16.5508L171.096 17.2529C170.884 16.8071 170.556 16.4505 170.11 16.1831C169.675 15.9156 169.179 15.7819 168.622 15.7819C167.786 15.7819 167.084 16.0661 166.516 16.6344C165.959 17.2027 165.68 17.9104 165.68 18.7573C165.68 19.5931 165.959 20.2952 166.516 20.8635C167.084 21.4319 167.786 21.716 168.622 21.716C169.179 21.716 169.681 21.5879 170.126 21.3316C170.572 21.0641 170.912 20.7075 171.146 20.2617L172.383 20.9805C172.027 21.638 171.514 22.1673 170.845 22.5685C170.177 22.9586 169.436 23.1536 168.622 23.1536ZM174.724 19.4259C174.869 20.1726 175.209 20.7521 175.744 21.1644C176.29 21.5767 176.959 21.7829 177.75 21.7829C178.853 21.7829 179.656 21.3761 180.157 20.5626L181.394 21.2647C180.581 22.524 179.355 23.1536 177.717 23.1536C176.39 23.1536 175.309 22.7413 174.474 21.9166C173.649 21.0808 173.237 20.0277 173.237 18.7573C173.237 17.498 173.643 16.4505 174.457 15.6147C175.27 14.7789 176.324 14.361 177.616 14.361C178.842 14.361 179.839 14.7956 180.608 15.6649C181.388 16.523 181.779 17.5593 181.779 18.774C181.779 18.9858 181.762 19.2031 181.728 19.4259H174.724ZM177.616 15.7317C176.836 15.7317 176.19 15.9546 175.677 16.4004C175.165 16.835 174.847 17.42 174.724 18.1555H180.308C180.185 17.3643 179.873 16.7625 179.371 16.3502C178.87 15.9379 178.285 15.7317 177.616 15.7317Z" fill="#FD5B2F"/>
</svg>
