<svg width="61" height="13" viewBox="0 0 61 13" fill="none" xmlns="http://www.w3.org/2000/svg">
<path d="M2.20776 11.4498L6.52834 2.80864C7.08592 1.69346 8.67734 1.69347 9.23492 2.80864L12.2022 8.74319C12.7598 9.85837 14.3512 9.85837 14.9088 8.74319L17.8761 2.80864C18.4337 1.69346 20.0251 1.69347 20.5827 2.80864L23.5499 8.74319C24.1075 9.85837 25.6989 9.85837 26.2565 8.74319L29.2238 2.80864C29.7814 1.69346 31.3728 1.69347 31.9304 2.80864L34.8977 8.74319C35.4553 9.85837 37.0467 9.85837 37.6043 8.74319L40.5715 2.80864C41.1291 1.69346 42.7205 1.69347 43.2781 2.80864L46.2454 8.74319C46.803 9.85837 48.3944 9.85837 48.952 8.74319L51.9193 2.80864C52.4768 1.69346 54.0683 1.69347 54.6258 2.80864L58.9464 11.4498" stroke="#FD5B2F" stroke-width="3.78258"/>
</svg>
